<?xml version="1.0" encoding="UTF-8" standalone="no"?>
<!-- Created with Inkscape (http://www.inkscape.org/) -->

<svg
   width="32"
   height="32"
   viewBox="0 0 8.4666662 8.4666662"
   version="1.1"
   id="svg1"
   xml:space="preserve"
   xmlns="http://www.w3.org/2000/svg"
   xmlns:svg="http://www.w3.org/2000/svg"><defs
     id="defs1" /><circle
     style="fill:#ffffff;fill-opacity:1;stroke-width:0.132291"
     id="path6"
     cx="4.2333331"
     cy="4.2333331"
     r="4.2333331" /><g
     style="color:#000000;fill:none"
     id="g1"
     transform="matrix(0.22827278,0,0,0.22827278,1.4942924,1.4939592)"><path
       d="M 6.006,5.5 H 2.00781 m 0,0 V 2 m 0,3.5 V 12 c 0,1.1037 -0.1513,2.4679 0.88846,3.1629 C 3.40049,15.5 4.1024,15.5 5.50623,15.5 m 8.49617,0 h 1.9991 m 2.9986,-3 v -3 c 0,-1.88562 0,-2.82843 -0.5855,-3.41421 C 17.8291,5.5 16.8867,5.5 15.0019,5.5 h -0.9995"
       stroke="currentColor"
       stroke-width="1.5"
       stroke-linecap="round"
       stroke-linejoin="round"
       id="path4"
       style="display:inline" /><path
       d="m 22.0001,22 c -0.9319,0 -1.3978,0 -1.7653,-0.1305 -0.4901,-0.174 -0.8794,-0.5077 -1.0824,-0.9278 -0.1523,-0.315 -0.1523,-0.7144 -0.1523,-1.5131 V 19"
       stroke="currentColor"
       stroke-width="1.5"
       stroke-linecap="round"
       stroke-linejoin="round"
       id="path5"
       style="color:#000000;fill:none" /><path
       d="M 6,15.5 C 6,14.5654 6,14.0981 6.20096,13.75 6.33261,13.522 6.52197,13.3326 6.75,13.201 7.09808,13 7.56538,13 8.5,13 h 3 c 0.9346,0 1.4019,0 1.75,0.201 0.228,0.1316 0.4174,0.321 0.549,0.549 C 14,14.0981 14,14.5654 14,15.5 c 0,0.9346 0,1.4019 -0.201,1.75 -0.1316,0.228 -0.321,0.4174 -0.549,0.549 C 12.9019,18 12.4346,18 11.5,18 h -3 C 7.56538,18 7.09808,18 6.75,17.799 6.52197,17.6674 6.33261,17.478 6.20096,17.25 6,16.9019 6,16.4346 6,15.5 Z"
       stroke="currentColor"
       stroke-width="1.5"
       id="path2"
       style="color:#000000;fill:none;fill-opacity:1;stroke:#000000;stroke-opacity:1" /><path
       d="M 6,5.5 C 6,4.56538 6,4.09808 6.20096,3.75 6.33261,3.52197 6.52197,3.33261 6.75,3.20096 7.09808,3 7.56538,3 8.5,3 h 3 c 0.9346,0 1.4019,0 1.75,0.20096 C 13.478,3.33261 13.6674,3.52197 13.799,3.75 14,4.09808 14,4.56538 14,5.5 14,6.43462 14,6.90192 13.799,7.25 13.6674,7.47803 13.478,7.66739 13.25,7.79904 12.9019,8 12.4346,8 11.5,8 h -3 C 7.56538,8 7.09808,8 6.75,7.79904 6.52197,7.66739 6.33261,7.47803 6.20096,7.25 6,6.90192 6,6.43462 6,5.5 Z"
       stroke="currentColor"
       stroke-width="1.5"
       id="path1"
       style="color:#000000;fill:none;fill-opacity:1;stroke:#000000;stroke-opacity:1" /><path
       d="M 20.8398,17.1408 C 21.6133,16.3673 22,15.9806 22,15.5 22,15.0194 21.6133,14.6327 20.8398,13.8592 l -0.199,-0.199 C 19.8673,12.8867 19.4806,12.5 19,12.5 c -0.4806,0 -0.8673,0.3867 -1.6408,1.1602 l -0.199,0.199 C 16.3867,14.6327 16,15.0194 16,15.5 c 0,0.4806 0.3867,0.8673 1.1602,1.6408 l 0.199,0.199 C 18.1327,18.1133 18.5194,18.5 19,18.5 c 0.4806,0 0.8673,-0.3867 1.6408,-1.1602 z"
       stroke="currentColor"
       stroke-width="1.5"
       id="path3"
       style="color:#000000;fill:none;fill-opacity:1;stroke:#000000;stroke-opacity:1" /></g></svg>
